<svg width="2536" height="2536" viewBox="0 0 2536 2536" fill="none" xmlns="http://www.w3.org/2000/svg">
<path d="M2134.09 938.009C2136.23 1007.68 2138.37 1079.64 2138.37 1152.89C2138.37 1392.19 2078.39 1626.75 1972.9 1806.1C1833.9 2039 1598.89 2210.8 1237.2 2220.39H1236.99C1226.4 2220.65 1215.81 2220.77 1205.02 2220.77C1202.47 2220.77 1199.88 2220.71 1197.28 2220.65C1194.68 2220.58 1192.09 2220.52 1189.54 2220.52C1165.1 2220.26 1140.16 2219.37 1115 2217.71L1110.77 2217.48L1107.77 2217.32C1092.09 2216.3 1076.41 2215.28 1060.93 2214.51C1261.74 2141.01 1490.24 2020.47 1613.65 1829.87C1822.6 1507.1 1813.44 1216.93 1806.72 1005.12C1805.19 956.672 1803.76 911.038 1804.88 869.365C1812.82 580.599 1928.3 243.386 2227.87 243.386C2257.1 243.386 2287.64 246.582 2319.41 252.974L2319.11 253.101L2318.4 253.485L2317.68 253.868C2311.17 257.064 2304.95 260.516 2298.84 264.223C2298.13 264.67 2297.42 265.085 2296.71 265.501C2295.99 265.916 2295.28 266.332 2294.57 266.779C2288.36 270.614 2282.25 274.705 2276.44 279.051C2275.64 279.6 2274.89 280.216 2274.12 280.85L2273.18 281.607C2267.89 285.698 2262.8 289.916 2257.81 294.262C2256.89 295.029 2255.98 295.796 2255.06 296.691C2249.66 301.676 2244.47 306.79 2239.38 312.286C2238.82 312.925 2238.26 313.533 2237.7 314.14C2237.14 314.747 2236.58 315.354 2236.02 315.993C2230.93 321.618 2226.04 327.37 2221.35 333.506C2120.24 465.937 2126.76 684.652 2134.39 938.009H2134.09Z" fill="#8B8A77"/>
<path d="M902.695 1672.26C1072.75 1441.02 1186.79 1204.28 1296.97 975.463C1387.8 786.915 1481.79 591.848 1607.85 397.293C1735.64 200.052 1894.29 95.8718 2066.68 95.8718C2139.69 95.8718 2212.29 114.663 2282.35 151.094C2263.82 149.049 2245.49 147.77 2227.67 147.77C2070.04 147.77 1939.5 228.814 1850.2 382.209C1776.78 508.248 1733.5 680.178 1728.41 866.297C1727.23 910.026 1728.62 955.915 1730.1 1004.43L1730.24 1009.08L1730.26 1009.52C1736.77 1217.04 1744.87 1475.1 1554.18 1769.66C1327.52 2119.92 693.339 2217.07 664.827 2221.28C537.543 2233.3 432.458 2254.52 346.821 2279.32C517.483 2121.32 732.033 1904.52 902.593 1672.51L902.695 1672.26Z" fill="#8B8A77"/>
<path fill-rule="evenodd" clip-rule="evenodd" d="M2318.4 253.485C2318.62 253.357 2318.85 253.229 2319.11 253.101L2318.4 253.485Z" fill="white"/>
</svg>
